<?xml version="1.0" standalone="no"?><!DOCTYPE svg PUBLIC "-//W3C//DTD SVG 1.1//EN" "http://www.w3.org/Graphics/SVG/1.1/DTD/svg11.dtd"><svg t="1751776584377" class="icon" viewBox="0 0 1024 1024" version="1.1" xmlns="http://www.w3.org/2000/svg" p-id="832" width="256" height="256" xmlns:xlink="http://www.w3.org/1999/xlink"><path d="M382.45003469 623.88285411l-10.10118025-14.08324899a64.5095109 64.5095109 0 0 0-52.41729573-26.8125953h-57.31524149l82.52173538 206.85518989 44.14786734-108.52464344a59.79739645 59.79739645 0 0 0-6.83588525-57.43470216" fill="#8FB1F9" p-id="833"></path><path d="M589.66361092 515.43785219C490.21808526 268.27085478 347.38128406 112.33304898 81.03398968 109.53232684a4.91121772 4.91121772 0 0 0-4.63247291 6.67660219l173.21998348 434.17821205 1.393724 3.50422068h68.91633446a93.93699811 93.93699811 0 0 1 76.34952844 39.02427221l10.1144533 14.10979617a88.26918751 88.26918751 0 0 1 10.12772851 85.14990034l-55.69586595 136.95661211 0.13273479 0.33183915 49.85549925 124.98385979c0.79641418 1.99103383 2.73435366 3.29184327 4.88467055 3.29184326h147.04451932c3.71659699 0 148.17277266-135.00539851 146.79232278-138.44325178l-119.86026465-303.85838082z" fill="#8FB1F9" p-id="834"></path><path d="M389.28591994 681.31755627c0.63713113-1.59282728 1.11497921-3.22547587 1.61937446-4.85812338a59.73102905 59.73102905 0 0 0-8.45525971-52.57657878l-10.10118025-14.08324899a64.3767761 64.3767761 0 0 0-52.40402269-26.8125953H106.62541708a4.85812338 4.85812338 0 0 0-4.40682247 6.96862003L274.72180651 941.26699433a4.91121772 4.91121772 0 0 0 8.94638083-0.30529198l105.6177326-259.64414608z" fill="#2166F7" p-id="835"></path><path d="M997.85218904 125.06239528c0-2.52197625-1.97776079-4.51301117-4.43336966-4.69884141C725.31941469 123.03154014 582.52243478 282.04881179 482.46632408 530.71572192L310.21531088 952.85481424a3.5838622 3.5838622 0 0 0 3.34493762 4.8979436h282.19592783c39.31629005 0 74.65051245-23.73312835 89.19833648-59.90358515L997.48052966 127.01360889a5.12359513 5.12359513 0 0 0 0.37165938-1.96448775" fill="#2166F7" p-id="836"></path></svg>